<svg xmlns="http://www.w3.org/2000/svg" width="389.3378" height="294.9104" viewBox="0 0 103.01229 78.028379" version="1.1">
	<g transform="translate(-49.082298,-21.941672)">
		<g transform="matrix(1,0,0,1.1248058,20.847023,-80.960474)">
			<path
					d="m 62.494141,96.191406 c -3.361522,0.149882 -6.731441,0.461748 -10.011896,1.237985 -1.282764,0.309514 -2.556408,0.670625 -3.786755,1.150229 -3.818255,1.50831 -7.150314,4.18024 -9.523075,7.52351 -1.055697,1.48098 -1.914627,3.10022 -2.557951,4.80114 -1.881651,4.67596 -2.988302,9.68243 -3.082023,14.72863 -0.06527,3.91701 0.450703,7.84471 1.535705,11.60938 0.734511,2.5316 1.719202,4.99482 2.980046,7.31099 1.277097,2.29308 2.968449,4.36369 5.006082,6.02251 1.773098,1.45541 3.828399,2.53333 5.964587,3.35006 3.018356,1.15258 6.221906,1.75377 9.433103,2.03146 1.997636,0.16819 4.005046,0.22514 6.008984,0.17121 4.863952,-0.1475 9.726546,-1.07608 14.231339,-2.93882 1.817079,-0.7543 3.566763,-1.66278 5.264744,-2.65453 0.614289,-0.20422 1.269404,-0.003 1.829573,0.2661 2.162975,1.06982 4.289683,2.21982 6.517343,3.15332 1.71857,0.72096 3.495967,1.32626 5.335098,1.65039 2.774315,0.52334 5.613635,0.62935 8.429045,0.48877 1.70886,-0.0955 3.42011,-0.23285 5.10321,-0.55464 2.66571,-0.49261 5.28681,-1.34575 7.63404,-2.71855 1.42095,-0.8119 2.66054,-1.9212 3.6975,-3.18256 1.97095,-2.41438 3.17162,-5.44311 3.40087,-8.55073 0.27602,-3.40785 -0.55208,-6.88125 -2.26218,-9.83553 -0.99907,-1.73825 -2.32062,-3.28331 -3.83647,-4.59156 -2.26706,-1.94705 -4.98022,-3.34281 -7.8397,-4.1886 -2.14803,-0.63159 -4.34046,-1.09314 -6.51317,-1.62919 -3.09431,-0.7413 -6.210492,-1.45957 -9.173975,-2.63968 -0.844829,-0.33915 -1.583509,-0.91777 -2.172746,-1.607 -0.934034,-1.09675 -1.480142,-2.53169 -1.441407,-3.97759 -0.02426,-2.84547 1.727993,-5.61603 4.298873,-6.82991 1.162247,-0.55334 2.382833,-1.03144 3.670995,-1.17553 1.12114,-0.14214 2.25278,-0.0263 3.37374,0.058 2.10709,0.1939 4.17939,0.71305 6.14395,1.4956 3.60551,1.35666 7.06964,3.06204 10.69018,4.38066 0.34011,0.13053 0.71092,0.16405 1.06814,0.0919 1.34752,-0.21882 2.47887,-1.45115 2.52039,-2.82585 -0.006,-0.42247 -0.0611,-0.84318 -0.0825,-1.26533 -0.19632,-2.46524 -0.54014,-4.91636 -0.9513,-7.354271 -0.61555,-0.791707 -1.57508,-1.215839 -2.52429,-1.456576 -0.86846,-0.21883 -1.75347,-0.365081 -2.63481,-0.521656 -4.09791,-0.677389 -8.2587,-0.862695 -12.40649,-0.888116 -1.52436,-0.01387 -3.05061,-0.0015 -4.57067,0.125016 -2.589433,0.210693 -5.169989,0.696373 -7.606191,1.614273 -2.627857,0.970274 -4.96482,2.63604 -6.884881,4.66193 -0.222771,0.19256 -0.373067,0.48511 -0.630969,0.62277 -0.420213,0.12523 -0.811704,-0.15516 -1.127727,-0.39802 -0.856208,-0.6059 -1.7551,-1.15068 -2.664031,-1.67379 -2.965625,-1.682706 -6.155805,-2.964537 -9.455868,-3.820315 -3.389267,-0.879079 -6.895128,-1.307302 -10.396412,-1.267469 z m 3.625,8.330074 c 4.905369,0.19249 9.757769,1.94527 13.58789,5.0293 0.962761,0.76836 1.781615,1.72476 2.345561,2.82273 0.794332,1.46706 1.199636,3.10059 1.549212,4.72023 0.518262,2.1099 1.447893,4.14723 2.87901,5.7967 1.319343,1.55587 3.003444,2.7726 4.819744,3.68557 1.09009,0.55175 2.237413,0.98045 3.403576,1.34086 1.688913,0.5275 3.405543,0.95952 5.105779,1.44819 2.321737,0.64985 4.650147,1.3271 6.838527,2.35369 1.4689,0.80456 2.72758,2.04624 3.415,3.5857 0.47726,1.06092 0.59824,2.24697 0.54008,3.39867 -0.0913,1.51097 -0.50917,3.00496 -1.22635,4.33865 -0.684,1.27734 -1.67993,2.39658 -2.91359,3.16476 -1.5443,0.99434 -3.37812,1.49287 -5.20721,1.53788 -2.317019,0.12985 -4.642235,-0.38233 -6.755379,-1.32028 -0.844795,-0.37158 -1.650162,-0.82512 -2.433242,-1.31204 -2.006626,-1.20069 -3.994936,-2.43155 -5.987671,-3.65506 -0.430113,-0.84687 -0.443445,-1.81921 -0.443563,-2.74758 -0.02284,-2.7249 -0.01866,-5.45005 -0.03003,-8.17505 0.0041,-0.39218 -0.01358,-0.7861 0.0068,-1.17698 -0.02406,-0.27073 -0.326377,-0.4803 -0.58789,-0.39844 -5.883092,-0.0497 -11.765727,-0.13933 -17.648438,-0.2207 -0.249025,0.0456 -0.304715,0.33758 -0.292105,0.55031 0.01603,0.58494 -0.01822,1.17105 -0.02208,1.75646 -0.03459,1.78186 -0.06919,3.56372 -0.103783,5.34557 0.09584,0.29444 0.45109,0.35636 0.720704,0.33204 0.537702,-0.0284 1.077897,-0.009 1.616568,-0.0189 2.373253,-0.0113 4.746507,-0.0226 7.11976,-0.0339 0.242916,0.035 0.319613,0.30955 0.316406,0.51953 -0.03214,0.73298 -0.0158,1.46797 -0.02819,2.20178 -0.01404,1.91776 -0.02808,3.83553 -0.04212,5.7533 -2.861509,1.11339 -5.817874,2.0447 -8.872877,2.43315 -1.329799,0.16479 -2.676648,0.25131 -4.014061,0.12769 -2.885823,-0.25727 -5.726528,-1.32164 -7.968491,-3.17566 -1.783869,-1.47452 -3.142782,-3.42036 -4.067855,-5.53244 -0.572427,-1.28904 -0.951165,-2.65291 -1.296292,-4.01723 -0.569495,-2.30069 -0.885782,-4.66231 -0.953822,-7.0312 -0.0702,-1.99093 -0.05534,-3.98792 0.119504,-5.97327 0.301751,-2.92768 0.98433,-5.81951 2.05868,-8.56063 0.81517,-1.97723 2.025962,-3.80293 3.597719,-5.25966 1.33238,-1.23519 2.943019,-2.15884 4.662332,-2.73759 1.987864,-0.67117 4.100237,-0.92125 6.192195,-0.89621 z"
					style="fill:#700388;"/>
		</g>
	</g>
</svg>
